<svg width="804" height="592" viewBox="0 0 804 592" fill="none" xmlns="http://www.w3.org/2000/svg">
<g clip-path="url(#clip0_48_89)">
<path d="M226.443 519.964C229.365 496.466 243.928 473.313 266.338 465.667C257.5 489.853 257.502 516.385 266.344 540.57C269.787 549.885 274.587 559.887 271.348 569.275C269.333 575.116 264.402 579.585 258.891 582.38C253.38 585.174 247.263 586.506 241.224 587.811L240.035 588.794C230.446 567.143 223.521 543.462 226.443 519.964Z" fill="#F0F0F0"/>
<path d="M266.561 466.111C253.51 480.734 245.399 499.097 243.379 518.592C242.869 522.781 243.023 527.024 243.835 531.166C244.757 535.174 246.735 538.863 249.564 541.848C252.146 544.685 255.115 547.287 256.962 550.702C257.882 552.464 258.419 554.401 258.538 556.385C258.656 558.369 258.354 560.356 257.651 562.215C256.02 566.893 252.806 570.706 249.533 574.326C245.898 578.344 242.06 582.461 240.515 587.789C240.328 588.435 239.337 588.106 239.524 587.462C242.212 578.192 251.21 572.927 255.501 564.578C257.504 560.682 258.344 556.159 256.467 552.047C254.825 548.451 251.766 545.764 249.126 542.915C246.324 540.043 244.267 536.528 243.136 532.678C242.116 528.592 241.799 524.361 242.198 520.168C242.946 510.715 245.175 501.437 248.805 492.676C252.892 482.653 258.664 473.404 265.87 465.328C266.316 464.828 267.004 465.615 266.561 466.111L266.561 466.111Z" fill="#E6E6E6"/>
<path d="M243.659 512.276C240.435 511.493 237.593 509.589 235.642 506.905C233.691 504.22 232.759 500.93 233.01 497.621C233.021 497.486 233.085 497.361 233.187 497.272C233.289 497.182 233.421 497.136 233.556 497.143C233.692 497.15 233.819 497.209 233.911 497.308C234.004 497.406 234.055 497.537 234.053 497.673C233.813 500.754 234.682 503.819 236.504 506.315C238.325 508.811 240.979 510.574 243.987 511.285C244.64 511.44 244.309 512.431 243.659 512.276Z" fill="#E6E6E6"/>
<path d="M248.065 540.582C253.89 537.105 258.189 531.559 260.107 525.052C260.296 524.407 261.287 524.735 261.098 525.379C259.09 532.147 254.604 537.909 248.535 541.514C247.956 541.858 247.49 540.924 248.065 540.582Z" fill="#E6E6E6"/>
<path d="M253.861 483.642C255.046 484.205 256.351 484.465 257.661 484.398C258.971 484.332 260.244 483.941 261.366 483.261C261.94 482.91 262.405 483.845 261.835 484.193C260.592 484.939 259.186 485.369 257.739 485.445C256.292 485.522 254.848 485.243 253.534 484.633C253.405 484.586 253.299 484.492 253.237 484.369C253.176 484.247 253.163 484.105 253.202 483.974C253.246 483.843 253.34 483.735 253.463 483.672C253.586 483.61 253.729 483.599 253.861 483.642Z" fill="#E6E6E6"/>
<path d="M334.648 507.637C334.295 507.866 333.943 508.095 333.59 508.333C328.871 511.436 324.411 514.918 320.255 518.744C319.929 519.034 319.603 519.334 319.286 519.633C309.373 528.957 301.276 540.041 295.408 552.32C293.078 557.208 291.122 562.267 289.559 567.452C287.401 574.613 285.631 582.549 281.359 588.406C280.92 589.022 280.444 589.611 279.932 590.168H241.326C241.239 590.124 241.151 590.089 241.062 590.045L239.521 590.115C239.583 589.842 239.653 589.56 239.715 589.287C239.75 589.129 239.794 588.97 239.829 588.812C239.856 588.706 239.882 588.6 239.9 588.503C239.909 588.468 239.918 588.433 239.926 588.406C239.944 588.31 239.97 588.221 239.988 588.133C240.376 586.557 240.775 584.98 241.186 583.403C241.186 583.395 241.186 583.395 241.194 583.386C244.211 571.342 248.646 559.699 254.406 548.7C254.583 548.374 254.759 548.039 254.953 547.713C257.62 542.844 260.681 538.202 264.104 533.832C265.987 531.445 267.989 529.155 270.103 526.97C275.576 521.336 281.901 516.599 288.846 512.93C302.692 505.62 318.723 502.819 333.52 507.284C333.899 507.399 334.269 507.514 334.648 507.637Z" fill="#F0F0F0"/>
<path d="M334.561 508.127C315.337 511.945 297.804 521.723 284.454 536.073C281.525 539.111 279.093 542.592 277.248 546.387C275.571 550.143 274.929 554.279 275.39 558.366C275.744 562.185 276.548 566.051 275.967 569.89C275.64 571.85 274.903 573.72 273.803 575.376C272.704 577.031 271.266 578.436 269.586 579.497C265.467 582.25 260.605 583.359 255.812 584.278C250.491 585.299 244.947 586.275 240.506 589.599C239.968 590.002 239.374 589.143 239.912 588.741C247.639 582.958 257.993 584.171 266.446 580.089C270.391 578.184 273.785 575.079 274.762 570.665C275.616 566.805 274.791 562.818 274.399 558.954C273.891 554.974 274.365 550.929 275.779 547.174C277.425 543.297 279.719 539.728 282.562 536.621C288.851 529.523 296.217 523.457 304.39 518.647C313.688 513.106 323.864 509.196 334.48 507.086C335.138 506.956 335.213 507.997 334.561 508.127H334.561Z" fill="#E6E6E6"/>
<path d="M288.481 531.2C286.377 528.633 285.254 525.402 285.313 522.084C285.372 518.766 286.608 515.577 288.801 513.086C289.247 512.584 290.048 513.252 289.602 513.755C287.556 516.071 286.405 519.042 286.356 522.132C286.308 525.221 287.366 528.227 289.339 530.605C289.767 531.123 288.906 531.714 288.481 531.2Z" fill="#E6E6E6"/>
<path d="M274.956 556.453C281.701 557.183 288.472 555.344 293.921 551.303C294.461 550.902 295.054 551.76 294.515 552.161C288.837 556.355 281.787 558.255 274.77 557.48C274.101 557.405 274.291 556.379 274.956 556.453Z" fill="#E6E6E6"/>
<path d="M313.866 514.478C314.473 515.641 315.359 516.635 316.445 517.37C317.531 518.106 318.782 518.56 320.087 518.693C320.757 518.758 320.566 519.785 319.901 519.719C318.46 519.566 317.078 519.063 315.877 518.253C314.675 517.443 313.69 516.351 313.008 515.073C312.933 514.957 312.906 514.818 312.93 514.683C312.955 514.549 313.029 514.428 313.14 514.347C313.254 514.268 313.394 514.238 313.53 514.263C313.666 514.288 313.786 514.365 313.866 514.478L313.866 514.478Z" fill="#E6E6E6"/>
<path d="M260.293 182.444H132.567C128.62 182.44 124.836 180.87 122.045 178.079C119.254 175.288 117.685 171.504 117.68 167.557V97.9912C117.685 94.0443 119.255 90.2603 122.045 87.4694C124.836 84.6786 128.62 83.1088 132.567 83.1045H260.293C264.24 83.1088 268.024 84.6786 270.815 87.4694C273.606 90.2603 275.176 94.0443 275.18 97.9912V167.557C275.176 171.504 273.606 175.288 270.815 178.079C268.024 180.87 264.24 182.44 260.293 182.444V182.444Z" fill="#E6E6E6"/>
<path d="M455.293 182.444H327.567C323.62 182.44 319.836 180.87 317.045 178.079C314.254 175.288 312.685 171.504 312.68 167.557V97.9912C312.685 94.0443 314.254 90.2603 317.045 87.4694C319.836 84.6786 323.62 83.1088 327.567 83.1045H455.293C459.24 83.1088 463.024 84.6786 465.815 87.4694C468.606 90.2603 470.176 94.0443 470.18 97.9912V167.557C470.176 171.504 468.606 175.288 465.815 178.079C463.024 180.87 459.24 182.44 455.293 182.444Z" fill="#FE6847"/>
<path d="M260.293 337.444H132.567C128.62 337.44 124.836 335.87 122.045 333.079C119.254 330.288 117.685 326.504 117.68 322.557V252.991C117.685 249.044 119.255 245.26 122.045 242.469C124.836 239.679 128.62 238.109 132.567 238.104H260.293C264.24 238.109 268.024 239.679 270.815 242.469C273.606 245.26 275.176 249.044 275.18 252.991V322.557C275.176 326.504 273.606 330.288 270.815 333.079C268.024 335.87 264.24 337.44 260.293 337.444Z" fill="#F2F2F2"/>
<path d="M455.293 337.444H327.567C323.62 337.44 319.836 335.87 317.045 333.079C314.254 330.288 312.685 326.504 312.68 322.557V252.991C312.685 249.044 314.254 245.26 317.045 242.469C319.836 239.679 323.62 238.109 327.567 238.104H455.293C459.24 238.109 463.024 239.679 465.815 242.469C468.606 245.26 470.176 249.044 470.18 252.991V322.557C470.176 326.504 468.606 330.288 465.815 333.079C463.024 335.87 459.24 337.44 455.293 337.444Z" fill="#E6E6E6"/>
<path d="M464.312 350.245C476.911 350.245 487.124 340.032 487.124 327.433C487.124 314.834 476.911 304.621 464.312 304.621C451.713 304.621 441.5 314.834 441.5 327.433C441.5 340.032 451.713 350.245 464.312 350.245Z" fill="#FE6847"/>
<path d="M473.785 325.518H466.029V317.761C466.029 317.522 465.981 317.284 465.89 317.063C465.798 316.842 465.664 316.64 465.494 316.471C465.325 316.301 465.123 316.167 464.902 316.075C464.681 315.984 464.443 315.936 464.204 315.936V315.936C463.964 315.936 463.727 315.984 463.505 316.075C463.284 316.167 463.083 316.301 462.913 316.471C462.744 316.64 462.609 316.842 462.517 317.063C462.426 317.284 462.379 317.522 462.379 317.761V325.518H454.622C454.383 325.518 454.145 325.565 453.924 325.656C453.703 325.748 453.501 325.883 453.332 326.052C453.162 326.222 453.028 326.423 452.936 326.644C452.845 326.866 452.797 327.103 452.797 327.343V327.343C452.797 327.582 452.845 327.82 452.936 328.041C453.028 328.263 453.162 328.464 453.332 328.633C453.501 328.803 453.703 328.937 453.924 329.029C454.145 329.121 454.383 329.168 454.622 329.168H462.379V336.924C462.379 337.164 462.426 337.401 462.518 337.622C462.609 337.844 462.744 338.045 462.913 338.214C463.083 338.384 463.284 338.518 463.505 338.61C463.727 338.702 463.964 338.749 464.204 338.749V338.749C464.688 338.749 465.152 338.557 465.494 338.214C465.836 337.872 466.029 337.408 466.029 336.924V329.168H473.785C474.024 329.168 474.262 329.12 474.483 329.029C474.705 328.937 474.906 328.803 475.075 328.633C475.245 328.464 475.379 328.262 475.471 328.041C475.563 327.82 475.61 327.582 475.61 327.343V327.343C475.61 327.103 475.563 326.866 475.471 326.644C475.379 326.423 475.245 326.222 475.075 326.052C474.906 325.883 474.705 325.748 474.483 325.656C474.262 325.565 474.024 325.517 473.785 325.517V325.517L473.785 325.518Z" fill="#E6E6E6"/>
<path d="M269.312 197.245C281.911 197.245 292.124 187.032 292.124 174.433C292.124 161.834 281.911 151.621 269.312 151.621C256.713 151.621 246.5 161.834 246.5 174.433C246.5 187.032 256.713 197.245 269.312 197.245Z" fill="#FE6847"/>
<path d="M278.784 172.517H271.028V164.761C271.028 164.521 270.981 164.284 270.889 164.063C270.798 163.841 270.663 163.64 270.494 163.471C270.324 163.301 270.123 163.167 269.902 163.075C269.68 162.983 269.443 162.936 269.203 162.936V162.936C268.964 162.936 268.726 162.983 268.505 163.075C268.283 163.167 268.082 163.301 267.913 163.471C267.743 163.64 267.609 163.841 267.517 164.063C267.425 164.284 267.378 164.521 267.378 164.761V164.761V172.517H259.622C259.382 172.517 259.145 172.564 258.924 172.656C258.702 172.748 258.501 172.882 258.331 173.052C258.162 173.221 258.028 173.423 257.936 173.644C257.844 173.865 257.797 174.103 257.797 174.342V174.342C257.797 174.826 257.989 175.291 258.331 175.633C258.674 175.975 259.138 176.168 259.622 176.168H267.378V183.924C267.378 184.163 267.425 184.401 267.517 184.622C267.609 184.844 267.743 185.045 267.913 185.214C268.082 185.384 268.283 185.518 268.505 185.61C268.726 185.702 268.964 185.749 269.203 185.749V185.749C269.443 185.749 269.68 185.702 269.902 185.61C270.123 185.518 270.324 185.384 270.494 185.214C270.663 185.045 270.798 184.844 270.889 184.622C270.981 184.401 271.028 184.163 271.028 183.924V176.167H278.784C279.024 176.167 279.261 176.12 279.483 176.029C279.704 175.937 279.906 175.802 280.075 175.633C280.244 175.463 280.379 175.262 280.471 175.041C280.562 174.819 280.61 174.582 280.61 174.342V174.342C280.61 173.858 280.417 173.394 280.075 173.052C279.733 172.71 279.268 172.517 278.784 172.517V172.517V172.517Z" fill="#E6E6E6"/>
<path d="M443.038 140.752C443.455 142.011 443.59 143.346 443.434 144.662C443.279 145.979 442.836 147.246 442.138 148.373C441.44 149.501 440.504 150.461 439.394 151.187C438.285 151.914 437.03 152.388 435.718 152.576L425.169 224.577L407.866 216.126L425.27 144.256C425.099 142.03 425.751 139.819 427.101 138.041C428.452 136.264 430.408 135.044 432.598 134.612C434.788 134.18 437.06 134.566 438.985 135.698C440.909 136.83 442.351 138.628 443.038 140.752L443.038 140.752Z" fill="#9E616A"/>
<path d="M317.052 371.352C317.822 370.273 318.346 369.038 318.588 367.734C318.829 366.43 318.782 365.089 318.449 363.806C318.116 362.522 317.506 361.327 316.661 360.305C315.816 359.283 314.758 358.459 313.56 357.89L320.676 281.304L305.771 288.944L301.117 362.745C300.295 364.82 300.263 367.125 301.027 369.223C301.791 371.32 303.297 373.065 305.262 374.126C307.226 375.187 309.511 375.49 311.684 374.979C313.857 374.468 315.767 373.177 317.052 371.352H317.052Z" fill="#9E616A"/>
<path d="M327.234 332.616L391.195 330.156L394.885 263.735H321.084L327.234 332.616Z" fill="#9E616A"/>
<path d="M315.363 567.187L326.293 567.186L331.492 525.029H315.361L315.363 567.187Z" fill="#9E616A"/>
<path d="M312.652 561.795L329.93 560.764V568.166L346.356 579.511C347.168 580.071 347.779 580.876 348.1 581.808C348.422 582.74 348.437 583.751 348.144 584.692C347.85 585.634 347.264 586.456 346.469 587.041C345.675 587.625 344.715 587.94 343.729 587.94H323.159L319.614 580.618L318.229 587.94H310.474L312.652 561.795Z" fill="#2F2E41"/>
<path d="M363.978 567.187L374.908 567.186L380.107 525.029H363.976L363.978 567.187Z" fill="#9E616A"/>
<path d="M326.347 317.024C326.347 317.024 307.21 332.474 317.584 387.652C316.004 387.84 317.793 390.954 317.793 390.954L319.29 435.914L320.447 441.067L316.601 449.381L318.186 458.415L313.298 540.407L331.356 542.742L348.636 457.599L351.927 448.026L355.227 439.635L353.447 430.688L354.907 416.8L364.869 369.971L367.308 451.189L363.905 458.943L365.799 467.454L361.58 471.972L359.912 547.962L379.167 548.863L395.098 472.26L393.862 462.484L395.982 455.256V438.373L399.612 430.405L407.526 386.958C407.526 386.958 409.914 352.999 392.494 313.039L326.347 317.024Z" fill="#2F2E41"/>
<path d="M334.146 208.533C334.146 208.533 309.975 213.313 305.81 233.928C301.645 254.542 298.965 301.19 298.965 301.19L299.877 307.687L323.259 313.108L338.183 247.746L334.146 208.533Z" fill="#3F3D56"/>
<path d="M389.31 215.491C389.31 215.491 391.76 212.058 405.481 211.528C406.046 211.506 405.346 210.386 405.346 210.386L411.945 178.133L433.936 190.308L430.223 224.121L394.088 265.222L389.31 215.491Z" fill="#3F3D56"/>
<path d="M375.602 311.642C365.25 311.643 349.666 310.5 326.207 307.017C324.696 306.789 323.297 306.084 322.215 305.005C321.133 303.926 320.425 302.529 320.193 301.018C319.427 300.21 318.929 299.184 318.765 298.082C318.602 296.98 318.783 295.854 319.282 294.858L319.304 294.816L318.772 294.189C317.95 293.223 317.467 292.015 317.397 290.749C317.327 289.482 317.674 288.228 318.385 287.178L311.12 235.203C310.383 230.042 311.511 224.787 314.303 220.383C317.094 215.98 321.365 212.717 326.348 211.181L329.03 210.346L339.172 197.08L339.372 197.082L371.933 197.516L382.5 210.934L399.58 214.961L399.625 215.221L403.591 238.135C405.653 250.053 400.923 254.741 394.885 265.222L396.657 294.656L397.461 296.117C397.907 296.926 398.057 297.865 397.884 298.772C397.711 299.679 397.226 300.497 396.513 301.085C397.052 302.624 397.089 304.295 396.618 305.857L396.2 307.238C396.201 307.277 396.09 307.839 395.188 308.523C393.562 309.758 388.893 311.642 375.602 311.642Z" fill="#3F3D56"/>
<path d="M361.266 561.795L378.544 560.764V568.166L394.971 579.511C395.782 580.071 396.393 580.876 396.715 581.808C397.036 582.74 397.051 583.751 396.758 584.692C396.465 585.634 395.878 586.456 395.084 587.041C394.289 587.625 393.329 587.94 392.343 587.94H371.773L368.228 580.618L366.844 587.94H359.088L361.266 561.795Z" fill="#2F2E41"/>
<path d="M379.413 168.17C381.671 154.254 372.221 141.142 358.305 138.884C344.389 136.626 331.277 146.076 329.019 159.992C326.761 173.908 336.211 187.02 350.127 189.278C364.043 191.536 377.155 182.086 379.413 168.17Z" fill="#9E616A"/>
<path d="M369.142 139.138C359.787 132.703 351.548 131.723 344.78 133.548C343.903 132.191 342.672 131.099 341.221 130.388C335.943 117.088 319.879 109.101 306.094 112.983C292.219 116.891 282.646 132.26 285.257 146.436C286.875 155.223 292.405 162.832 294.629 171.485C298.935 188.237 288.431 207.426 272 212.825C287.558 215.949 304.683 206.446 310.264 191.592C312.975 184.377 313.138 176.5 313.483 168.8C313.574 163.485 314.225 158.195 315.426 153.017C316.021 150.694 316.863 148.441 317.937 146.297C320.276 141.583 324.161 137.814 328.943 135.619C328.515 136.943 328.408 138.351 328.631 139.725C328.854 141.099 329.4 142.4 330.225 143.521C326.577 148.092 324.59 153.034 324.59 155.995C317.011 169.847 327.85 181.746 341.703 189.325C347.228 192.364 353.608 193.476 359.835 192.486L360.415 190.012L361.2 192.241L363.821 199.712C366.845 201.175 369.843 202.778 372.814 204.523C371.685 199.221 370.772 193.93 370.144 188.756C369.274 181.714 372.307 171.23 374.495 164.855C375.851 160.926 376.547 156.799 376.555 152.642V152.46L378.685 159.303L386.441 155.994C384.998 147.718 386.441 138.323 369.142 139.138Z" fill="#2F2E41"/>
<path d="M685.173 591.375H117.879C117.564 591.373 117.263 591.247 117.041 591.024C116.819 590.801 116.694 590.499 116.694 590.184C116.694 589.87 116.819 589.568 117.041 589.344C117.263 589.121 117.564 588.995 117.879 588.994H685.173C685.488 588.995 685.789 589.121 686.011 589.344C686.233 589.568 686.358 589.87 686.358 590.184C686.358 590.499 686.233 590.801 686.011 591.024C685.789 591.247 685.488 591.373 685.173 591.375V591.375Z" fill="#CCCCCC"/>
<path d="M266.704 353.243C279.303 353.243 289.516 343.03 289.516 330.431C289.516 317.832 279.303 307.619 266.704 307.619C254.105 307.619 243.892 317.832 243.892 330.431C243.892 343.03 254.105 353.243 266.704 353.243Z" fill="#E6E6E6"/>
<path d="M597.339 162.876H517.326C514.853 162.873 512.483 161.889 510.735 160.141C508.986 158.392 508.003 156.022 508 153.549V109.97C508.003 107.498 508.986 105.127 510.735 103.379C512.483 101.631 514.854 100.647 517.326 100.645H597.339C599.811 100.647 602.182 101.631 603.93 103.379C605.679 105.127 606.662 107.498 606.665 109.97V153.549C606.662 156.022 605.679 158.392 603.93 160.141C602.182 161.889 599.811 162.873 597.339 162.876V162.876Z" fill="#F2F2F2"/>
<path d="M598.517 145.174C605.208 145.174 610.632 139.75 610.632 133.06C610.632 126.369 605.208 120.945 598.517 120.945C591.827 120.945 586.403 126.369 586.403 133.06C586.403 139.75 591.827 145.174 598.517 145.174Z" fill="#FE6847"/>
<path d="M603.548 132.042H599.429V127.923C599.429 127.796 599.404 127.67 599.355 127.552C599.306 127.435 599.235 127.328 599.145 127.238C599.055 127.148 598.948 127.077 598.831 127.028C598.713 126.979 598.587 126.954 598.46 126.954C598.203 126.954 597.956 127.056 597.774 127.238C597.593 127.42 597.49 127.666 597.49 127.923V132.042H593.372C593.115 132.042 592.868 132.144 592.686 132.326C592.504 132.508 592.402 132.754 592.402 133.012V133.012C592.402 133.139 592.427 133.265 592.476 133.382C592.525 133.5 592.596 133.607 592.686 133.697C592.776 133.787 592.883 133.858 593.001 133.907C593.118 133.956 593.244 133.981 593.372 133.981H597.491V138.1C597.491 138.227 597.516 138.353 597.564 138.471C597.613 138.588 597.684 138.695 597.774 138.785C597.864 138.875 597.971 138.946 598.089 138.995C598.206 139.044 598.332 139.069 598.46 139.069V139.069C598.717 139.069 598.963 138.967 599.145 138.785C599.327 138.603 599.429 138.357 599.429 138.1V133.981H603.548C603.805 133.981 604.052 133.879 604.233 133.697C604.415 133.515 604.517 133.269 604.517 133.012V133.012C604.517 132.884 604.492 132.758 604.443 132.641C604.395 132.523 604.323 132.416 604.233 132.326C604.143 132.236 604.036 132.165 603.919 132.116C603.801 132.067 603.675 132.042 603.548 132.042L603.548 132.042Z" fill="#E6E6E6"/>
<path d="M629.937 150.509H563.999C561.2 150.506 558.517 149.392 556.538 147.414C554.559 145.435 553.446 142.752 553.443 139.953V100.593C553.444 100.078 553.649 99.5846 554.014 99.2209C554.379 98.8571 554.873 98.6528 555.388 98.6528C555.903 98.6528 556.397 98.8571 556.761 99.2209C557.126 99.5846 557.331 100.078 557.332 100.593V111.134L633.923 118.097C635.453 118.124 636.911 118.75 637.984 119.841C639.057 120.932 639.659 122.4 639.661 123.93C639.661 124.051 639.649 124.17 639.627 124.289L635.768 144.873C635.714 146.385 635.077 147.817 633.99 148.868C632.902 149.919 631.449 150.507 629.937 150.509V150.509ZM557.333 115.04V139.953C557.335 141.72 558.038 143.415 559.287 144.665C560.537 145.914 562.232 146.617 563.999 146.619H629.937C630.453 146.619 630.947 146.414 631.311 146.049C631.676 145.684 631.881 145.19 631.882 144.674C631.882 144.554 631.893 144.434 631.915 144.316L635.766 123.78C635.727 123.292 635.506 122.836 635.147 122.504C634.788 122.171 634.316 121.986 633.826 121.986C633.768 121.986 633.709 121.983 633.65 121.977L557.333 115.04Z" fill="#FE6847"/>
<path d="M546.478 168.66C548.268 168.66 549.719 167.209 549.719 165.419C549.719 163.628 548.268 162.177 546.478 162.177C544.687 162.177 543.236 163.628 543.236 165.419C543.236 167.209 544.687 168.66 546.478 168.66Z" fill="#FE6847"/>
<path d="M627.344 168.66C629.134 168.66 630.585 167.209 630.585 165.419C630.585 163.628 629.134 162.177 627.344 162.177C625.554 162.177 624.103 163.628 624.103 165.419C624.103 167.209 625.554 168.66 627.344 168.66Z" fill="#FE6847"/>
<path d="M630.585 162.177H543.884C543.368 162.177 542.874 161.972 542.509 161.608C542.144 161.243 541.939 160.748 541.939 160.232C541.939 159.717 542.144 159.222 542.509 158.857C542.874 158.492 543.368 158.288 543.884 158.288H630.585C631.1 158.288 631.595 158.492 631.96 158.857C632.325 159.222 632.529 159.717 632.529 160.232C632.529 160.748 632.325 161.243 631.96 161.608C631.595 161.972 631.1 162.177 630.585 162.177V162.177Z" fill="#FE6847"/>
<path d="M560.574 101.89H543.719C543.204 101.888 542.711 101.683 542.347 101.318C541.983 100.954 541.779 100.46 541.779 99.9448C541.779 99.4297 541.983 98.9358 542.347 98.5712C542.711 98.2066 543.204 98.0012 543.719 98H560.574C561.089 98.0012 561.582 98.2066 561.946 98.5712C562.31 98.9358 562.514 99.4297 562.514 99.9448C562.514 100.46 562.31 100.954 561.946 101.318C561.582 101.683 561.089 101.888 560.574 101.89V101.89Z" fill="#FE6847"/>
<path d="M574.095 161.187C573.63 161.188 573.181 161.021 572.828 160.717L560.046 149.732C559.851 149.566 559.692 149.363 559.576 149.135C559.46 148.907 559.391 148.659 559.371 148.404C559.351 148.149 559.382 147.892 559.462 147.649C559.542 147.406 559.668 147.181 559.835 146.987C560.002 146.793 560.205 146.634 560.433 146.519C560.661 146.404 560.91 146.335 561.165 146.315C561.42 146.296 561.676 146.328 561.919 146.408C562.162 146.488 562.387 146.615 562.58 146.782L575.363 157.767C575.664 158.026 575.879 158.371 575.979 158.756C576.078 159.14 576.057 159.546 575.919 159.919C575.781 160.291 575.532 160.612 575.206 160.839C574.88 161.066 574.492 161.187 574.095 161.187V161.187Z" fill="#FE6847"/>
<path d="M576.788 149.314C576.533 149.314 576.28 149.264 576.044 149.166C575.808 149.068 575.594 148.925 575.413 148.744C575.232 148.564 575.089 148.349 574.991 148.114C574.894 147.878 574.843 147.625 574.843 147.369V116.151C574.843 115.635 575.048 115.141 575.413 114.776C575.778 114.411 576.272 114.206 576.788 114.206C577.304 114.206 577.798 114.411 578.163 114.776C578.528 115.141 578.733 115.635 578.733 116.151V147.369C578.733 147.625 578.683 147.877 578.585 148.113C578.487 148.349 578.344 148.564 578.163 148.744C577.983 148.925 577.768 149.068 577.532 149.166C577.297 149.264 577.044 149.314 576.788 149.314H576.788Z" fill="#FE6847"/>
<path d="M617.87 149.314C617.614 149.314 617.361 149.264 617.125 149.166C616.889 149.068 616.675 148.925 616.494 148.745C616.314 148.564 616.171 148.35 616.073 148.114C615.975 147.878 615.925 147.625 615.925 147.37V118.744C615.926 118.229 616.131 117.736 616.496 117.372C616.861 117.008 617.355 116.804 617.87 116.804C618.385 116.804 618.879 117.008 619.243 117.372C619.608 117.736 619.813 118.229 619.814 118.744V147.369C619.814 147.625 619.764 147.878 619.666 148.114C619.569 148.35 619.425 148.564 619.245 148.745C619.064 148.925 618.85 149.068 618.614 149.166C618.378 149.264 618.125 149.314 617.87 149.314H617.87Z" fill="#FE6847"/>
<path d="M599.443 286.772L581.23 284.163C575.071 294.463 572.882 321.878 572.882 321.878L555.057 364.242C553.877 365.044 552.929 366.143 552.308 367.428C551.687 368.712 551.415 370.138 551.521 371.561C551.626 372.984 552.104 374.355 552.907 375.534C553.711 376.713 554.81 377.661 556.096 378.28C557.381 378.899 558.807 379.169 560.23 379.062C561.653 378.955 563.023 378.475 564.201 377.671C565.38 376.866 566.326 375.765 566.944 374.479C567.561 373.193 567.829 371.766 567.721 370.343L596.986 321.033L599.443 286.772Z" fill="#FFB8B8"/>
<path d="M596.544 236.209C599.363 236.646 602.051 237.698 604.417 239.292C606.783 240.885 608.769 242.981 610.233 245.429C611.697 247.877 612.604 250.618 612.888 253.456C613.173 256.294 612.828 259.161 611.879 261.851L608.014 272.805C608.014 272.805 605.91 305.79 597.887 315.101L573.266 312.872C573.266 312.872 577.768 296.231 574.312 288.179C572.195 283.248 572.313 266.217 574.398 252.363C574.789 249.847 575.672 247.433 576.997 245.259C578.322 243.085 580.063 241.193 582.12 239.693C584.177 238.192 586.51 237.112 588.985 236.514C591.46 235.917 594.029 235.813 596.544 236.209V236.209Z" fill="#E6E6E6"/>
<path d="M656.734 578.466L645.763 578.465L640.544 536.148L656.736 536.149L656.734 578.466Z" fill="#FFB6B6"/>
<path d="M657.12 589.91L623.383 589.909V589.482C623.384 586 624.767 582.66 627.23 580.197C629.692 577.735 633.032 576.351 636.515 576.351H636.516L642.678 571.676L654.176 576.352L657.121 576.352L657.12 589.91Z" fill="#2F2E41"/>
<path d="M609.037 526.021L598.903 530.222L577.871 493.133L592.829 486.931L609.037 526.021Z" fill="#FFB6B6"/>
<path d="M613.779 536.444L582.615 549.367L582.451 548.973C581.117 545.756 581.116 542.14 582.447 538.922C583.779 535.704 586.334 533.147 589.551 531.813L589.551 531.812L593.453 525.133L605.865 525.048L608.585 523.92L613.779 536.444Z" fill="#2F2E41"/>
<path d="M669.278 337.742L591.42 345.877L581.005 380.955L544.937 438.917L584.761 512.085L598.785 499.496L585.323 440.413L625.504 397.034L633.123 393.873L639.172 554.84L661.542 555.208L671.331 377.59C676.035 361.899 674.619 348.944 669.278 337.742Z" fill="#2F2E41"/>
<path d="M640.732 226.695L627.953 212.306L607.76 214.549L594.832 232.642C587.95 234.224 581.936 238.384 578.028 244.264C574.12 250.145 572.614 257.3 573.821 264.257C578.837 293.146 595.887 321.165 590.257 335.418C581.712 357.055 581.19 365.88 601.646 362.846C622.103 359.813 690.636 352.82 677.349 339.533C664.062 326.246 661.143 304.043 661.143 304.043L660.61 253.246C661.175 250.182 661.1 247.035 660.389 244.002C659.679 240.968 658.348 238.115 656.481 235.621C654.614 233.127 652.251 231.047 649.54 229.511C646.83 227.975 643.831 227.016 640.732 226.695L640.732 226.695Z" fill="#E6E6E6"/>
<path d="M615.759 208.623C628.139 208.623 638.175 198.588 638.175 186.208C638.175 173.828 628.139 163.792 615.759 163.792C603.379 163.792 593.344 173.828 593.344 186.208C593.344 198.588 603.379 208.623 615.759 208.623Z" fill="#FFB8B8"/>
<path d="M643.379 184.877C642.378 189.419 640.572 193.745 638.047 197.65C637.377 198.982 636.376 200.119 635.139 200.952C634.513 201.354 633.766 201.523 633.028 201.431C632.29 201.338 631.608 200.99 631.1 200.447L630.555 200.003C631.624 199.344 632.579 198.515 633.382 197.549C633.78 197.064 634.056 196.492 634.188 195.879C634.319 195.266 634.303 194.63 634.14 194.025C633.946 193.428 633.529 192.93 632.975 192.634C632.421 192.338 631.775 192.269 631.171 192.44C629.858 192.955 629.061 194.853 627.688 194.56C626.577 194.318 626.345 192.854 626.345 191.703C626.385 185.685 623.477 177.132 621.225 177.395C618.95 177.519 616.673 177.214 614.511 176.496C612.346 175.777 610.062 175.485 607.786 175.638C607.624 175.658 607.463 175.689 607.291 175.719C606.926 174.575 606.424 173.48 605.797 172.457C605.867 173.692 605.806 174.931 605.615 176.153C603.804 176.899 601.932 177.491 600.021 177.92C597.941 178.213 593.367 184.433 593.155 183.797C592.79 182.653 592.288 181.558 591.66 180.535C591.731 181.77 591.67 183.009 591.479 184.231C591.469 184.281 591.469 184.322 591.458 184.372C590.449 183.029 589.833 181.393 590.176 182.645C586.793 174.992 588.106 169.509 593.427 163.057C594.464 161.669 595.837 160.568 597.416 159.856C598.207 159.509 599.073 159.371 599.933 159.456C600.792 159.541 601.616 159.845 602.323 160.341C604.493 158.351 607.156 156.978 610.036 156.363C612.916 155.749 615.907 155.916 618.701 156.847C624.244 158.776 628.515 159.906 629.364 165.723C633.948 164.985 638.663 167.591 641.188 171.478C643.702 175.376 644.217 180.323 643.379 184.877Z" fill="#2F2E41"/>
<path d="M625.201 371.058H617.762V313.798H623.812C624.105 313.798 624.386 313.914 624.594 314.121C624.802 314.328 624.919 314.608 624.921 314.901L625.201 371.058Z" fill="#3F3D56"/>
<path d="M618.457 371.361H538.563V330.583H618.457V371.361Z" fill="#E6E6E6"/>
<path d="M586.967 371.209H538.715V330.734H618.305V339.871C618.296 348.179 614.991 356.145 609.116 362.02C603.241 367.895 595.275 371.2 586.967 371.209V371.209Z" fill="#FE6847"/>
<path d="M623.99 315.425C623.95 315.501 623.918 315.581 623.897 315.664L621.142 326.283L618.154 331.943H538.867V330.533L543.381 326.283L548.647 316.211C548.879 315.766 549.184 315.364 549.55 315.02V315.02C550.384 314.235 551.485 313.798 552.63 313.798H623.009C623.201 313.798 623.388 313.848 623.555 313.942C623.721 314.036 623.86 314.171 623.959 314.335C624.058 314.498 624.112 314.685 624.118 314.876C624.123 315.067 624.079 315.256 623.99 315.425V315.425Z" fill="#3F3D56"/>
<path d="M618.457 371.361H538.563V330.583H618.457V371.361ZM539.17 370.754H617.851V331.189H539.17V370.754Z" fill="#3F3D56"/>
<path d="M622.613 320.857L621.142 326.284H543.381L545.893 321.767L622.613 320.857Z" fill="#FE6847"/>
<path d="M554.246 351.951H541.51V352.656H554.246V351.951Z" fill="#E6E6E6"/>
<path d="M554.246 354.417H541.51V355.122H554.246V354.417Z" fill="#E6E6E6"/>
<path d="M554.246 356.884H541.51V357.589H554.246V356.884Z" fill="#E6E6E6"/>
<path d="M546.443 344.1C548.973 344.1 551.024 342.049 551.024 339.519C551.024 336.989 548.973 334.938 546.443 334.938C543.913 334.938 541.862 336.989 541.862 339.519C541.862 342.049 543.913 344.1 546.443 344.1Z" fill="#E6E6E6"/>
<path d="M656.283 281.536L638.07 278.928C631.91 289.228 629.721 316.643 629.721 316.643L611.897 359.007C610.717 359.809 609.769 360.907 609.148 362.192C608.527 363.477 608.255 364.903 608.361 366.326C608.466 367.749 608.944 369.119 609.747 370.299C610.55 371.478 611.65 372.425 612.936 373.045C614.221 373.664 615.647 373.934 617.07 373.827C618.493 373.72 619.863 373.24 621.041 372.435C622.22 371.631 623.166 370.53 623.783 369.244C624.401 367.957 624.669 366.531 624.561 365.108L653.826 315.797L656.283 281.536Z" fill="#FFB8B8"/>
<path d="M646.411 230.974C649.23 231.41 651.918 232.463 654.284 234.056C656.65 235.65 658.636 237.745 660.1 240.193C661.564 242.642 662.471 245.382 662.756 248.221C663.04 251.059 662.696 253.925 661.746 256.615L657.881 267.57C657.881 267.57 662.75 300.555 654.726 309.866L630.106 307.637C630.106 307.637 634.607 290.996 631.152 282.944C629.035 278.013 629.153 260.982 631.238 247.128C632.83 236.549 635.839 229.336 646.411 230.974Z" fill="#E6E6E6"/>
<path d="M491.76 176.397C482.861 180.835 476.09 188.626 472.936 198.056C469.782 207.486 470.503 217.783 474.941 226.682C484.182 245.212 517.577 276.814 544.221 281.589C532.76 246.789 548.696 211.417 542.044 193.216C534.936 173.768 510.289 167.156 491.76 176.397Z" fill="#FE6847"/>
<path d="M504.25 220.468C511.003 220.468 516.478 214.993 516.478 208.24C516.478 201.487 511.003 196.013 504.25 196.013C497.497 196.013 492.022 201.487 492.022 208.24C492.022 214.993 497.497 220.468 504.25 220.468Z" fill="#E6E6E6"/>
<path d="M543.986 301.215C548.409 301.215 551.995 297.63 551.995 293.207C551.995 288.783 548.409 285.198 543.986 285.198C539.563 285.198 535.978 288.783 535.978 293.207C535.978 297.63 539.563 301.215 543.986 301.215Z" fill="#FE6847"/>
<path opacity="0.2" d="M507.976 195.387C509.582 195.331 511.183 195.592 512.688 196.155C514.192 196.719 515.571 197.573 516.745 198.669C517.92 199.766 518.866 201.083 519.531 202.545C520.196 204.008 520.567 205.587 520.621 207.193C520.676 208.798 520.413 210.399 519.849 211.903C519.284 213.407 518.429 214.785 517.331 215.959C516.234 217.132 514.916 218.078 513.453 218.741C511.99 219.405 510.41 219.774 508.805 219.827C511.526 218.815 513.798 216.868 515.215 214.333C516.631 211.799 517.1 208.843 516.536 205.995C515.972 203.147 514.414 200.592 512.138 198.789C509.863 196.985 507.021 196.049 504.119 196.15C505.355 195.689 506.658 195.431 507.976 195.387V195.387Z" fill="#231F20"/>
<path opacity="0.2" d="M542.106 193.223C548.758 211.424 532.822 246.797 544.283 281.597C541.768 281.134 539.291 280.485 536.872 279.657C527.534 246.016 542.19 212.401 535.763 194.815C530.01 179.076 512.771 171.746 496.583 174.42C514.35 168.361 535.592 175.401 542.106 193.223Z" fill="#231F20"/>
</g>
<defs>
<clipPath id="clip0_48_89">
<rect width="803.052" height="591.375" fill="white"/>
</clipPath>
</defs>
</svg>
